ply
format ascii 1.0
comment Exported by Aspose.3D 21.10
element vertex 507
property float x
property float y
property float z
element face 968
property list uchar int vertex_index
end_header
-0.4375 0.765625 0.164062
0.4375 0.765625 0.164062
-0.5 0.6875 0.09375
0.5 0.6875 0.09375
-0.546875 0.578125 0.054688
0.546875 0.578125 0.054688
-0.351562 0.617188 -0.023438
0.351562 0.617188 -0.023438
-0.351562 0.71875 0.03125
0.351562 0.71875 0.03125
-0.351562 0.78125 0.132812
0.351562 0.78125 0.132812
-0.273438 0.796875 0.164062
0.273438 0.796875 0.164062
-0.203125 0.742188 0.09375
0.203125 0.742188 0.09375
-0.15625 0.648438 0.054688
0.15625 0.648438 0.054688
-0.078125 0.65625 0.242188
0.078125 0.65625 0.242188
-0.140625 0.742188 0.242188
0.140625 0.742188 0.242188
-0.242188 0.796875 0.242188
0.242188 0.796875 0.242188
-0.273438 0.796875 0.328125
0.273438 0.796875 0.328125
-0.203125 0.742188 0.390625
0.203125 0.742188 0.390625
-0.15625 0.648438 0.4375
0.15625 0.648438 0.4375
-0.351562 0.617188 0.515625
0.351562 0.617188 0.515625
-0.351562 0.71875 0.453125
0.351562 0.71875 0.453125
-0.351562 0.78125 0.359375
0.351562 0.78125 0.359375
-0.4375 0.765625 0.328125
0.4375 0.765625 0.328125
-0.5 0.6875 0.390625
0.5 0.6875 0.390625
-0.546875 0.578125 0.4375
0.546875 0.578125 0.4375
-0.625 0.5625 0.242188
0.625 0.5625 0.242188
-0.5625 0.671875 0.242188
0.5625 0.671875 0.242188
-0.46875 0.757812 0.242188
0.46875 0.757812 0.242188
-0.476562 0.773438 0.242188
0.476562 0.773438 0.242188
-0.445312 0.78125 0.335938
0.445312 0.78125 0.335938
-0.351562 0.804688 0.375
0.351562 0.804688 0.375
-0.265625 0.820312 0.335938
0.265625 0.820312 0.335938
-0.226562 0.820312 0.242188
0.226562 0.820312 0.242188
-0.265625 0.820312 0.15625
0.265625 0.820312 0.15625
-0.351562 0.828125 0.242188
0.351562 0.828125 0.242188
-0.351562 0.804688 0.117188
0.351562 0.804688 0.117188
-0.445312 0.78125 0.15625
0.445312 0.78125 0.15625
0 0.742188 0.429688
0 0.820312 0.351562
0 0.734375 -0.679688
0 0.78125 -0.320312
0 0.796875 -0.1875
0 0.71875 -0.773438
0 0.601562 0.40625
0 0.570312 0.570312
0 -0.546875 0.898438
0 -0.851562 0.5625
0 -0.828125 0.070312
0 -0.351562 -0.382812
-0.203125 0.5625 -0.1875
0.203125 0.5625 -0.1875
-0.3125 0.570312 -0.4375
0.3125 0.570312 -0.4375
-0.351562 0.570312 -0.695312
0.351562 0.570312 -0.695312
-0.367188 0.53125 -0.890625
0.367188 0.53125 -0.890625
-0.328125 0.523438 -0.945312
0.328125 0.523438 -0.945312
-0.179688 0.554688 -0.96875
0.179688 0.554688 -0.96875
0 0.578125 -0.984375
-0.4375 0.53125 -0.140625
0.4375 0.53125 -0.140625
-0.632812 0.539062 -0.039062
0.632812 0.539062 -0.039062
-0.828125 0.445312 0.148438
0.828125 0.445312 0.148438
-0.859375 0.59375 0.429688
0.859375 0.59375 0.429688
-0.710938 0.625 0.484375
0.710938 0.625 0.484375
-0.492188 0.6875 0.601562
0.492188 0.6875 0.601562
-0.320312 0.734375 0.757812
0.320312 0.734375 0.757812
-0.15625 0.757812 0.71875
0.15625 0.757812 0.71875
-0.0625 0.75 0.492188
0.0625 0.75 0.492188
-0.164062 0.773438 0.414062
0.164062 0.773438 0.414062
-0.125 0.765625 0.304688
0.125 0.765625 0.304688
-0.203125 0.742188 0.09375
0.203125 0.742188 0.09375
-0.375 0.703125 0.015625
0.375 0.703125 0.015625
-0.492188 0.671875 0.0625
0.492188 0.671875 0.0625
-0.625 0.648438 0.1875
0.625 0.648438 0.1875
-0.640625 0.648438 0.296875
0.640625 0.648438 0.296875
-0.601562 0.664062 0.375
0.601562 0.664062 0.375
-0.429688 0.71875 0.4375
0.429688 0.71875 0.4375
-0.25 0.757812 0.46875
0.25 0.757812 0.46875
0 0.734375 -0.765625
-0.109375 0.734375 -0.71875
0.109375 0.734375 -0.71875
-0.117188 0.710938 -0.835938
0.117188 0.710938 -0.835938
-0.0625 0.695312 -0.882812
0.0625 0.695312 -0.882812
0 0.6875 -0.890625
0 0.75 -0.195312
0 0.742188 -0.140625
-0.101562 0.742188 -0.148438
0.101562 0.742188 -0.148438
-0.125 0.75 -0.226562
0.125 0.75 -0.226562
-0.085938 0.742188 -0.289062
0.085938 0.742188 -0.289062
-0.398438 0.671875 -0.046875
0.398438 0.671875 -0.046875
-0.617188 0.625 0.054688
0.617188 0.625 0.054688
-0.726562 0.601562 0.203125
0.726562 0.601562 0.203125
-0.742188 0.65625 0.375
0.742188 0.65625 0.375
-0.6875 0.726562 0.414062
0.6875 0.726562 0.414062
-0.4375 0.796875 0.546875
0.4375 0.796875 0.546875
-0.3125 0.835938 0.640625
0.3125 0.835938 0.640625
-0.203125 0.851562 0.617188
0.203125 0.851562 0.617188
-0.101562 0.84375 0.429688
0.101562 0.84375 0.429688
-0.125 0.8125 -0.101562
0.125 0.8125 -0.101562
-0.210938 0.710938 -0.445312
0.210938 0.710938 -0.445312
-0.25 0.6875 -0.703125
0.25 0.6875 -0.703125
-0.265625 0.664062 -0.820312
0.265625 0.664062 -0.820312
-0.234375 0.632812 -0.914062
0.234375 0.632812 -0.914062
-0.164062 0.632812 -0.929688
0.164062 0.632812 -0.929688
0 0.640625 -0.945312
0 0.726562 0.046875
0 0.765625 0.210938
-0.328125 0.742188 0.476562
0.328125 0.742188 0.476562
-0.164062 0.75 0.140625
0.164062 0.75 0.140625
-0.132812 0.757812 0.210938
0.132812 0.757812 0.210938
-0.117188 0.734375 -0.6875
0.117188 0.734375 -0.6875
-0.078125 0.75 -0.445312
0.078125 0.75 -0.445312
0 0.75 -0.445312
0 0.742188 -0.328125
-0.09375 0.78125 -0.273438
0.09375 0.78125 -0.273438
-0.132812 0.796875 -0.226562
0.132812 0.796875 -0.226562
-0.109375 0.78125 -0.132812
0.109375 0.78125 -0.132812
-0.039062 0.78125 -0.125
0.039062 0.78125 -0.125
0 0.828125 -0.203125
-0.046875 0.8125 -0.148438
0.046875 0.8125 -0.148438
-0.09375 0.8125 -0.15625
0.09375 0.8125 -0.15625
-0.109375 0.828125 -0.226562
0.109375 0.828125 -0.226562
-0.078125 0.804688 -0.25
0.078125 0.804688 -0.25
0 0.804688 -0.289062
-0.257812 0.554688 -0.3125
0.257812 0.554688 -0.3125
-0.164062 0.710938 -0.242188
0.164062 0.710938 -0.242188
-0.179688 0.710938 -0.3125
0.179688 0.710938 -0.3125
-0.234375 0.554688 -0.25
0.234375 0.554688 -0.25
0 0.6875 -0.875
-0.046875 0.6875 -0.867188
0.046875 0.6875 -0.867188
-0.09375 0.710938 -0.820312
0.09375 0.710938 -0.820312
-0.09375 0.726562 -0.742188
0.09375 0.726562 -0.742188
0 0.65625 -0.78125
-0.09375 0.664062 -0.75
0.09375 0.664062 -0.75
-0.09375 0.640625 -0.8125
0.09375 0.640625 -0.8125
-0.046875 0.632812 -0.851562
0.046875 0.632812 -0.851562
0 0.632812 -0.859375
-0.171875 0.78125 0.21875
0.171875 0.78125 0.21875
-0.1875 0.773438 0.15625
0.1875 0.773438 0.15625
-0.335938 0.757812 0.429688
0.335938 0.757812 0.429688
-0.273438 0.773438 0.421875
0.273438 0.773438 0.421875
-0.421875 0.773438 0.398438
0.421875 0.773438 0.398438
-0.5625 0.695312 0.351562
0.5625 0.695312 0.351562
-0.585938 0.6875 0.289062
0.585938 0.6875 0.289062
-0.578125 0.679688 0.195312
0.578125 0.679688 0.195312
-0.476562 0.71875 0.101562
0.476562 0.71875 0.101562
-0.375 0.742188 0.0625
0.375 0.742188 0.0625
-0.226562 0.78125 0.109375
0.226562 0.78125 0.109375
-0.179688 0.78125 0.296875
0.179688 0.78125 0.296875
-0.210938 0.78125 0.375
0.210938 0.78125 0.375
-0.234375 0.757812 0.359375
0.234375 0.757812 0.359375
-0.195312 0.757812 0.296875
0.195312 0.757812 0.296875
-0.242188 0.757812 0.125
0.242188 0.757812 0.125
-0.375 0.726562 0.085938
0.375 0.726562 0.085938
-0.460938 0.703125 0.117188
0.460938 0.703125 0.117188
-0.546875 0.671875 0.210938
0.546875 0.671875 0.210938
-0.554688 0.671875 0.28125
0.554688 0.671875 0.28125
-0.53125 0.679688 0.335938
0.53125 0.679688 0.335938
-0.414062 0.75 0.390625
0.414062 0.75 0.390625
-0.28125 0.765625 0.398438
0.28125 0.765625 0.398438
-0.335938 0.75 0.40625
0.335938 0.75 0.40625
-0.203125 0.75 0.171875
0.203125 0.75 0.171875
-0.195312 0.75 0.226562
0.195312 0.75 0.226562
-0.109375 0.609375 0.460938
0.109375 0.609375 0.460938
-0.195312 0.617188 0.664062
0.195312 0.617188 0.664062
-0.335938 0.59375 0.6875
0.335938 0.59375 0.6875
-0.484375 0.554688 0.554688
0.484375 0.554688 0.554688
-0.679688 0.492188 0.453125
0.679688 0.492188 0.453125
-0.796875 0.460938 0.40625
0.796875 0.460938 0.40625
-0.773438 0.375 0.164062
0.773438 0.375 0.164062
-0.601562 0.414062 0
0.601562 0.414062 0
-0.4375 0.46875 -0.09375
0.4375 0.46875 -0.09375
0 0.289062 0.898438
0 -0.078125 0.984375
0 -0.671875 -0.195312
0 0.1875 -0.460938
0 0.460938 -0.976562
0 0.34375 -0.804688
0 0.320312 -0.570312
0 0.28125 -0.484375
-0.851562 0.054688 0.234375
0.851562 0.054688 0.234375
-0.859375 -0.046875 0.320312
0.859375 -0.046875 0.320312
-0.773438 -0.4375 0.265625
0.773438 -0.4375 0.265625
-0.460938 -0.703125 0.4375
0.460938 -0.703125 0.4375
-0.734375 0.070312 -0.046875
0.734375 0.070312 -0.046875
-0.59375 -0.164062 -0.125
0.59375 -0.164062 -0.125
-0.640625 -0.429688 -0.007812
0.640625 -0.429688 -0.007812
-0.335938 -0.664062 0.054688
0.335938 -0.664062 0.054688
-0.234375 0.40625 -0.351562
0.234375 0.40625 -0.351562
-0.179688 0.257812 -0.414062
0.179688 0.257812 -0.414062
-0.289062 0.382812 -0.710938
0.289062 0.382812 -0.710938
-0.25 0.390625 -0.5
0.25 0.390625 -0.5
-0.328125 0.398438 -0.914062
0.328125 0.398438 -0.914062
-0.140625 0.367188 -0.757812
0.140625 0.367188 -0.757812
-0.125 0.359375 -0.539062
0.125 0.359375 -0.539062
-0.164062 0.4375 -0.945312
0.164062 0.4375 -0.945312
-0.21875 0.429688 -0.28125
0.21875 0.429688 -0.28125
-0.210938 0.46875 -0.226562
0.210938 0.46875 -0.226562
-0.203125 0.5 -0.171875
0.203125 0.5 -0.171875
-0.210938 0.164062 -0.390625
0.210938 0.164062 -0.390625
-0.296875 -0.265625 -0.3125
0.296875 -0.265625 -0.3125
-0.34375 -0.539062 -0.148438
0.34375 -0.539062 -0.148438
-0.453125 -0.382812 0.867188
0.453125 -0.382812 0.867188
-0.453125 -0.070312 0.929688
0.453125 -0.070312 0.929688
-0.453125 0.234375 0.851562
0.453125 0.234375 0.851562
-0.460938 0.429688 0.523438
0.460938 0.429688 0.523438
-0.726562 0.335938 0.40625
0.726562 0.335938 0.40625
-0.632812 0.28125 0.453125
0.632812 0.28125 0.453125
-0.640625 0.054688 0.703125
0.640625 0.054688 0.703125
-0.796875 0.125 0.5625
0.796875 0.125 0.5625
-0.796875 -0.117188 0.617188
0.796875 -0.117188 0.617188
-0.640625 -0.195312 0.75
0.640625 -0.195312 0.75
-0.640625 -0.445312 0.679688
0.640625 -0.445312 0.679688
-0.796875 -0.359375 0.539062
0.796875 -0.359375 0.539062
-0.617188 -0.585938 0.328125
0.617188 -0.585938 0.328125
-0.484375 -0.546875 0.023438
0.484375 -0.546875 0.023438
-0.820312 -0.203125 0.328125
0.820312 -0.203125 0.328125
-0.40625 0.148438 -0.171875
0.40625 0.148438 -0.171875
-0.429688 -0.210938 -0.195312
0.429688 -0.210938 -0.195312
-0.890625 -0.234375 0.40625
0.890625 -0.234375 0.40625
-0.773438 -0.125 -0.140625
0.773438 -0.125 -0.140625
-1.039062 -0.328125 -0.101562
1.039062 -0.328125 -0.101562
-1.28125 -0.429688 0.054688
1.28125 -0.429688 0.054688
-1.351562 -0.421875 0.320312
1.351562 -0.421875 0.320312
-1.234375 -0.421875 0.507812
1.234375 -0.421875 0.507812
-1.023438 -0.3125 0.476562
1.023438 -0.3125 0.476562
-1.015625 -0.289062 0.414062
1.015625 -0.289062 0.414062
-1.1875 -0.390625 0.4375
1.1875 -0.390625 0.4375
-1.265625 -0.40625 0.289062
1.265625 -0.40625 0.289062
-1.210938 -0.40625 0.078125
1.210938 -0.40625 0.078125
-1.03125 -0.304688 -0.039062
1.03125 -0.304688 -0.039062
-0.828125 -0.132812 -0.070312
0.828125 -0.132812 -0.070312
-0.921875 -0.21875 0.359375
0.921875 -0.21875 0.359375
-0.945312 -0.289062 0.304688
0.945312 -0.289062 0.304688
-0.882812 -0.210938 -0.023438
0.882812 -0.210938 -0.023438
-1.039062 -0.367188 0
1.039062 -0.367188 0
-1.1875 -0.445312 0.09375
1.1875 -0.445312 0.09375
-1.234375 -0.445312 0.25
1.234375 -0.445312 0.25
-1.171875 -0.4375 0.359375
1.171875 -0.4375 0.359375
-1.023438 -0.359375 0.34375
1.023438 -0.359375 0.34375
-0.84375 -0.210938 0.289062
0.84375 -0.210938 0.289062
-0.835938 -0.273438 0.171875
0.835938 -0.273438 0.171875
-0.757812 -0.273438 0.09375
0.757812 -0.273438 0.09375
-0.820312 -0.273438 0.085938
0.820312 -0.273438 0.085938
-0.84375 -0.273438 0.015625
0.84375 -0.273438 0.015625
-0.8125 -0.273438 -0.015625
0.8125 -0.273438 -0.015625
-0.726562 -0.070312 0
0.726562 -0.070312 0
-0.71875 -0.171875 -0.023438
0.71875 -0.171875 -0.023438
-0.71875 -0.1875 0.039062
0.71875 -0.1875 0.039062
-0.796875 -0.210938 0.203125
0.796875 -0.210938 0.203125
-0.890625 -0.265625 0.242188
0.890625 -0.265625 0.242188
-0.890625 -0.320312 0.234375
0.890625 -0.320312 0.234375
-0.8125 -0.320312 -0.015625
0.8125 -0.320312 -0.015625
-0.851562 -0.320312 0.015625
0.851562 -0.320312 0.015625
-0.828125 -0.320312 0.078125
0.828125 -0.320312 0.078125
-0.765625 -0.320312 0.09375
0.765625 -0.320312 0.09375
-0.84375 -0.320312 0.171875
0.84375 -0.320312 0.171875
-1.039062 -0.414062 0.328125
1.039062 -0.414062 0.328125
-1.1875 -0.484375 0.34375
1.1875 -0.484375 0.34375
-1.257812 -0.492188 0.242188
1.257812 -0.492188 0.242188
-1.210938 -0.484375 0.085938
1.210938 -0.484375 0.085938
-1.046875 -0.421875 0
1.046875 -0.421875 0
-0.882812 -0.265625 -0.015625
0.882812 -0.265625 -0.015625
-0.953125 -0.34375 0.289062
0.953125 -0.34375 0.289062
-0.890625 -0.328125 0.109375
0.890625 -0.328125 0.109375
-0.9375 -0.335938 0.0625
0.9375 -0.335938 0.0625
-1 -0.367188 0.125
1 -0.367188 0.125
-0.960938 -0.351562 0.171875
0.960938 -0.351562 0.171875
-1.015625 -0.375 0.234375
1.015625 -0.375 0.234375
-1.054688 -0.382812 0.1875
1.054688 -0.382812 0.1875
-1.109375 -0.390625 0.210938
1.109375 -0.390625 0.210938
-1.085938 -0.390625 0.273438
1.085938 -0.390625 0.273438
-1.023438 -0.484375 0.4375
1.023438 -0.484375 0.4375
-1.25 -0.546875 0.46875
1.25 -0.546875 0.46875
-1.367188 -0.5 0.296875
1.367188 -0.5 0.296875
-1.3125 -0.53125 0.054688
1.3125 -0.53125 0.054688
-1.039062 -0.492188 -0.085938
1.039062 -0.492188 -0.085938
-0.789062 -0.328125 -0.125
0.789062 -0.328125 -0.125
-0.859375 -0.382812 0.382812
0.859375 -0.382812 0.382812
3 46 0 2
3 3 1 47
3 44 2 4
3 5 3 45
3 2 8 6
3 7 9 3
3 0 10 8
3 9 11 1
3 10 12 14
3 15 13 11
3 8 14 16
3 17 15 9
3 20 18 16
3 21 15 17
3 12 22 20
3 21 23 13
3 22 24 26
3 27 25 23
3 26 28 18
3 27 21 19
3 32 30 28
3 33 27 29
3 34 32 26
3 35 25 27
3 36 38 32
3 37 35 33
3 38 40 30
3 39 33 31
3 44 42 40
3 45 39 41
3 46 44 38
3 47 37 39
3 36 50 48
3 37 47 49
3 34 52 50
3 35 37 51
3 24 54 52
3 25 35 53
3 22 56 54
3 23 25 55
3 22 12 58
3 59 13 23
3 12 10 62
3 63 11 13
3 10 0 64
3 65 1 11
3 0 46 48
3 49 47 1
3 60 64 48
3 49 65 61
3 62 64 60
3 61 65 63
3 60 58 62
3 63 59 61
3 60 56 58
3 59 57 61
3 60 54 56
3 57 55 61
3 60 52 54
3 55 53 61
3 60 50 52
3 53 51 61
3 60 48 50
3 51 49 61
3 173 175 90
3 174 89 90
3 171 173 88
3 172 87 89
3 84 169 171
3 172 170 85
3 82 167 169
3 170 168 83
3 80 165 167
3 168 166 81
3 78 91 145
3 146 92 79
3 93 147 145
3 94 92 146
3 93 95 149
3 150 96 94
3 97 151 149
3 98 96 150
3 99 153 151
3 100 98 152
3 101 155 153
3 102 100 154
3 101 103 157
3 158 104 102
3 105 159 157
3 106 104 158
3 107 161 159
3 108 106 160
3 66 67 161
3 66 108 162
3 127 159 161
3 128 110 162
3 127 178 157
3 158 179 128
3 155 157 178
3 156 126 179
3 153 155 125
3 154 124 126
3 151 153 123
3 152 122 124
3 149 151 121
3 150 120 122
3 147 149 119
3 148 118 120
3 145 147 117
3 146 116 118
3 163 145 115
3 164 114 116
3 113 180 176
3 176 181 114
3 161 67 111
3 162 110 112
3 111 67 177
3 177 67 112
3 180 182 177
3 181 176 177
3 134 136 175
3 175 136 135
3 132 134 173
3 174 135 133
3 132 171 169
3 133 131 170
3 165 186 184
3 185 187 166
3 130 169 167
3 168 170 131
3 189 188 186
3 189 144 187
3 186 188 68
3 187 185 68
3 130 184 68
3 131 129 68
3 141 192 190
3 191 193 142
3 139 194 192
3 193 195 140
3 196 194 139
3 197 138 140
3 70 196 138
3 70 137 138
3 143 190 69
3 144 189 69
3 190 205 207
3 191 69 207
3 70 198 199
3 200 198 70
3 196 199 201
3 202 200 197
3 201 203 192
3 202 195 193
3 192 203 205
3 206 204 193
3 203 201 199
3 204 198 200
3 198 207 205
3 206 207 198
3 138 139 163
3 164 140 138
3 139 141 210
3 211 142 140
3 143 212 210
3 144 142 211
3 186 165 212
3 187 144 213
3 208 212 165
3 209 81 166
3 214 210 212
3 215 209 213
3 78 163 210
3 211 164 79
3 129 71 221
3 129 131 222
3 132 130 221
3 222 131 133
3 134 132 219
3 220 133 135
3 136 134 217
3 218 135 136
3 217 228 230
3 218 216 230
3 217 219 226
3 227 220 218
3 219 221 224
3 225 222 220
3 71 223 224
3 71 222 225
3 223 230 228
3 229 230 223
3 224 228 226
3 227 229 225
3 182 180 233
3 234 181 183
3 111 182 231
3 232 183 112
3 111 253 255
3 112 110 256
3 113 251 233
3 114 181 234
3 113 115 249
3 250 116 114
3 115 117 247
3 248 118 116
3 117 119 245
3 246 120 118
3 119 121 243
3 244 122 120
3 123 241 243
3 124 122 244
3 125 239 241
3 126 124 242
3 125 178 235
3 236 179 126
3 178 127 237
3 238 128 179
3 127 109 255
3 256 110 128
3 255 257 275
3 256 238 276
3 235 237 275
3 276 238 236
3 235 277 273
3 236 240 274
3 239 273 271
3 240 242 272
3 243 241 271
3 272 242 244
3 243 269 267
3 244 246 268
3 247 245 267
3 268 246 248
3 247 265 263
3 248 250 264
3 249 263 261
3 250 252 262
3 233 251 261
3 262 252 234
3 255 253 259
3 260 254 256
3 253 231 281
3 282 232 254
3 231 233 279
3 280 234 232
3 66 107 283
3 284 108 66
3 107 105 285
3 286 106 108
3 103 287 285
3 104 106 286
3 101 289 287
3 102 104 288
3 99 291 289
3 100 102 290
3 99 97 293
3 294 98 100
3 95 295 293
3 96 98 294
3 95 93 297
3 298 94 96
3 93 91 299
3 300 92 94
3 308 327 337
3 308 307 338
3 307 337 335
3 307 306 336
3 306 335 339
3 306 305 340
3 88 90 305
3 305 90 89
3 86 88 339
3 340 89 87
3 84 86 333
3 334 87 85
3 82 84 329
3 330 85 83
3 329 335 337
3 338 336 330
3 333 339 335
3 334 330 336
3 331 337 327
3 332 326 328
3 80 82 331
3 332 83 81
3 341 343 214
3 342 209 215
3 325 341 208
3 326 81 209
3 214 343 345
3 215 79 346
3 345 299 91
3 346 79 92
3 323 351 303
3 324 76 303
3 351 349 77
3 352 303 77
3 77 349 347
3 348 350 77
3 304 347 327
3 328 348 304
3 327 347 341
3 328 326 342
3 295 297 317
3 318 298 296
3 315 323 76
3 316 75 76
3 357 355 302
3 358 301 302
3 302 355 353
3 354 356 302
3 74 353 315
3 316 354 74
3 291 293 361
3 362 294 292
3 363 361 367
3 368 362 364
3 365 367 369
3 370 368 366
3 371 369 375
3 376 370 372
3 377 373 375
3 378 314 376
3 315 353 373
3 374 354 316
3 353 355 371
3 372 356 354
3 355 357 365
3 366 358 356
3 357 359 363
3 364 360 358
3 291 363 359
3 292 290 360
3 359 357 301
3 360 73 301
3 283 285 287
3 288 286 284
3 283 289 359
3 360 290 284
3 72 283 73
3 73 284 72
3 295 309 361
3 296 294 362
3 309 311 367
3 368 312 310
3 311 381 369
3 370 382 312
3 375 369 381
3 376 314 382
3 349 385 383
3 350 348 384
3 383 385 319
3 384 318 320
3 297 299 383
3 384 300 298
3 299 343 341
3 342 344 300
3 341 347 383
3 384 348 342
3 299 345 343
3 344 346 300
3 321 379 377
3 322 314 378
3 377 379 323
3 378 316 324
3 385 379 321
3 386 320 322
3 351 379 385
3 352 350 386
3 323 379 351
3 352 380 324
3 387 413 401
3 388 400 402
3 399 401 403
3 404 402 400
3 403 405 395
3 404 398 396
3 405 407 393
3 406 396 394
3 407 409 391
3 408 394 392
3 391 409 411
3 412 410 392
3 409 419 417
3 418 420 410
3 407 421 419
3 420 422 408
3 423 421 407
3 424 406 408
3 425 423 405
3 426 404 406
3 427 425 403
3 428 402 404
3 401 413 415
3 416 414 402
3 319 443 441
3 320 318 442
3 389 411 443
3 390 320 444
3 309 317 441
3 442 318 310
3 381 429 413
3 414 430 382
3 411 417 439
3 440 418 412
3 445 443 439
3 446 438 440
3 433 445 437
3 438 446 434
3 447 445 433
3 448 432 434
3 447 431 449
3 448 430 450
3 429 449 415
3 430 414 416
3 311 447 429
3 430 448 312
3 441 445 447
3 442 312 448
3 441 443 445
3 446 444 442
3 415 449 451
3 452 450 416
3 431 461 451
3 432 450 452
3 431 433 459
3 460 434 432
3 435 457 459
3 436 434 460
3 437 455 457
3 438 436 458
3 437 439 453
3 454 440 438
3 439 417 473
3 474 418 440
3 427 415 475
3 476 416 428
3 425 427 463
3 464 428 426
3 423 425 465
3 466 426 424
3 423 467 469
3 424 422 470
3 421 469 471
3 422 420 472
3 419 471 473
3 420 418 474
3 455 479 477
3 456 458 478
3 479 481 483
3 480 478 484
3 483 481 487
3 488 482 484
3 487 489 491
3 488 486 492
3 463 475 485
3 486 476 464
3 483 485 475
3 484 452 476
3 461 477 483
3 462 452 484
3 457 477 461
3 462 478 458
3 473 479 455
3 474 454 456
3 471 481 479
3 480 482 472
3 487 481 471
3 488 470 472
3 489 487 469
3 490 468 470
3 465 491 489
3 490 492 466
3 463 491 465
3 466 492 464
3 391 389 503
3 504 390 392
3 393 391 501
3 502 392 394
3 393 499 497
3 394 396 498
3 395 497 495
3 396 398 496
3 397 495 493
3 398 400 494
3 399 493 505
3 400 388 506
3 501 503 505
3 502 494 506
3 493 495 499
3 500 496 494
3 495 497 499
3 500 498 496
3 381 387 505
3 382 314 506
3 313 505 503
3 504 506 314
3 319 321 503
3 504 322 320
3 44 46 2
3 45 3 47
3 42 44 4
3 43 5 45
3 4 2 6
3 5 7 3
3 2 0 8
3 3 9 1
3 8 10 14
3 9 15 11
3 6 8 16
3 7 17 9
3 14 20 16
3 19 21 17
3 14 12 20
3 15 21 13
3 20 22 26
3 21 27 23
3 20 26 18
3 29 27 19
3 26 32 28
3 31 33 29
3 24 34 26
3 33 35 27
3 34 36 32
3 39 37 33
3 32 38 30
3 41 39 31
3 38 44 40
3 43 45 41
3 36 46 38
3 45 47 39
3 46 36 48
3 51 37 49
3 36 34 50
3 53 35 51
3 34 24 52
3 55 25 53
3 24 22 54
3 57 23 55
3 56 22 58
3 57 59 23
3 58 12 62
3 59 63 13
3 62 10 64
3 63 65 11
3 64 0 48
3 65 49 1
3 88 173 90
3 175 174 90
3 86 171 88
3 174 172 89
3 86 84 171
3 87 172 85
3 84 82 169
3 85 170 83
3 82 80 167
3 83 168 81
3 163 78 145
3 164 146 79
3 91 93 145
3 148 94 146
3 147 93 149
3 148 150 94
3 95 97 149
3 152 98 150
3 97 99 151
3 154 100 152
3 99 101 153
3 156 102 154
3 155 101 157
3 156 158 102
3 103 105 157
3 160 106 158
3 105 107 159
3 162 108 160
3 107 66 161
3 67 66 162
3 109 127 161
3 160 128 162
3 159 127 157
3 160 158 128
3 125 155 178
3 158 156 179
3 123 153 125
3 156 154 126
3 121 151 123
3 154 152 124
3 119 149 121
3 152 150 122
3 117 147 119
3 150 148 120
3 115 145 117
3 148 146 118
3 113 163 115
3 146 164 116
3 163 113 176
3 164 176 114
3 109 161 111
3 67 162 112
3 182 111 177
3 183 177 112
3 176 180 177
3 183 181 177
3 173 134 175
3 174 175 135
3 171 132 173
3 172 174 133
3 130 132 169
3 172 133 170
3 167 165 184
3 168 185 166
3 184 130 167
3 185 168 131
3 143 189 186
3 188 189 187
3 184 186 68
3 188 187 68
3 129 130 68
3 185 131 68
3 143 141 190
3 144 191 142
3 141 139 192
3 142 193 140
3 138 196 139
3 195 197 140
3 137 70 138
3 197 70 138
3 189 143 69
3 191 144 69
3 69 190 207
3 206 191 207
3 196 70 199
3 197 200 70
3 194 196 201
3 195 202 197
3 194 201 192
3 204 202 193
3 190 192 205
3 191 206 193
3 198 203 199
3 202 204 200
3 203 198 205
3 204 206 198
3 176 138 163
3 176 164 138
3 163 139 210
3 164 211 140
3 141 143 210
3 213 144 211
3 143 186 212
3 166 187 213
3 80 208 165
3 213 209 166
3 208 214 212
3 211 215 213
3 214 78 210
3 215 211 79
3 130 129 221
3 71 129 222
3 219 132 221
3 220 222 133
3 217 134 219
3 218 220 135
3 216 136 217
3 216 218 136
3 216 217 230
3 229 218 230
3 228 217 226
3 229 227 218
3 226 219 224
3 227 225 220
3 221 71 224
3 223 71 225
3 224 223 228
3 225 229 223
3 231 182 233
3 232 234 183
3 253 111 231
3 254 232 112
3 109 111 255
3 254 112 256
3 180 113 233
3 252 114 234
3 251 113 249
3 252 250 114
3 249 115 247
3 250 248 116
3 247 117 245
3 248 246 118
3 245 119 243
3 246 244 120
3 121 123 243
3 242 124 244
3 123 125 241
3 240 126 242
3 239 125 235
3 240 236 126
3 235 178 237
3 236 238 179
3 237 127 255
3 238 256 128
3 237 255 275
3 258 256 276
3 277 235 275
3 278 276 236
3 239 235 273
3 278 236 274
3 241 239 271
3 274 240 272
3 269 243 271
3 270 272 244
3 245 243 267
3 270 244 268
3 265 247 267
3 266 268 248
3 249 247 263
3 266 248 264
3 251 249 261
3 264 250 262
3 279 233 261
3 280 262 234
3 257 255 259
3 258 260 256
3 259 253 281
3 260 282 254
3 281 231 279
3 282 280 232
3 72 66 283
3 72 284 66
3 283 107 285
3 284 286 108
3 105 103 285
3 288 104 286
3 103 101 287
3 290 102 288
3 101 99 289
3 292 100 290
3 291 99 293
3 292 294 100
3 97 95 293
3 296 96 294
3 295 95 297
3 296 298 96
3 297 93 299
3 298 300 94
3 307 308 337
3 328 308 338
3 306 307 335
3 338 307 336
3 305 306 339
3 336 306 340
3 339 88 305
3 340 305 89
3 333 86 339
3 334 340 87
3 329 84 333
3 330 334 85
3 331 82 329
3 332 330 83
3 331 329 337
3 332 338 330
3 329 333 335
3 340 334 336
3 325 331 327
3 338 332 328
3 325 80 331
3 326 332 81
3 208 341 214
3 344 342 215
3 80 325 208
3 342 326 209
3 78 214 345
3 344 215 346
3 78 345 91
3 300 346 92
3 76 323 303
3 352 324 303
3 303 351 77
3 350 352 77
3 304 77 347
3 304 348 77
3 308 304 327
3 308 328 304
3 325 327 341
3 348 328 342
3 309 295 317
3 310 318 296
3 75 315 76
3 324 316 76
3 301 357 302
3 356 358 302
3 74 302 353
3 74 354 302
3 75 74 315
3 75 316 74
3 363 291 361
3 364 362 292
3 365 363 367
3 366 368 364
3 371 365 369
3 372 370 366
3 373 371 375
3 374 376 372
3 313 377 375
3 374 378 376
3 377 315 373
3 378 374 316
3 373 353 371
3 374 372 354
3 371 355 365
3 372 366 356
3 365 357 363
3 366 364 358
3 289 291 359
3 364 292 360
3 73 359 301
3 358 360 301
3 289 283 287
3 290 288 284
3 73 283 359
3 73 360 284
3 293 295 361
3 310 296 362
3 361 309 367
3 362 368 310
3 367 311 369
3 368 370 312
3 313 375 381
3 370 376 382
3 347 349 383
3 386 350 384
3 317 383 319
3 386 384 320
3 317 297 383
3 318 384 298
3 383 299 341
3 384 342 300
3 313 321 377
3 380 322 378
3 315 377 323
3 380 378 324
3 319 385 321
3 380 386 322
3 349 351 385
3 380 352 386
3 399 387 401
3 414 388 402
3 397 399 403
3 398 404 400
3 397 403 395
3 406 404 396
3 395 405 393
3 408 406 394
3 393 407 391
3 410 408 392
3 389 391 411
3 390 412 392
3 411 409 417
3 412 418 410
3 409 407 419
3 410 420 408
3 405 423 407
3 422 424 408
3 403 425 405
3 424 426 406
3 401 427 403
3 426 428 404
3 427 401 415
3 428 416 402
3 317 319 441
3 444 320 442
3 319 389 443
3 412 390 444
3 311 309 441
3 312 442 310
3 387 381 413
3 388 414 382
3 443 411 439
3 444 440 412
3 437 445 439
3 444 446 440
3 435 433 437
3 436 438 434
3 431 447 433
3 446 448 434
3 429 447 449
3 432 448 450
3 413 429 415
3 450 430 416
3 381 311 429
3 382 430 312
3 311 441 447
3 446 442 448
3 475 415 451
3 476 452 416
3 449 431 451
3 462 432 452
3 461 431 459
3 462 460 432
3 433 435 459
3 458 436 460
3 435 437 457
3 456 438 458
3 455 437 453
3 456 454 438
3 453 439 473
3 454 474 440
3 463 427 475
3 464 476 428
3 465 425 463
3 466 464 426
3 467 423 465
3 468 466 424
3 421 423 469
3 468 424 470
3 419 421 471
3 470 422 472
3 417 419 473
3 472 420 474
3 457 455 477
3 480 456 478
3 477 479 483
3 482 480 484
3 485 483 487
3 486 488 484
3 485 487 491
3 490 488 492
3 491 463 485
3 492 486 464
3 451 483 475
3 486 484 476
3 451 461 483
3 478 462 484
3 459 457 461
3 460 462 458
3 453 473 455
3 480 474 456
3 473 471 479
3 474 480 472
3 469 487 471
3 482 488 472
3 467 489 469
3 488 490 470
3 467 465 489
3 468 490 466
3 501 391 503
3 502 504 392
3 499 393 501
3 500 502 394
3 395 393 497
3 500 394 498
3 397 395 495
3 498 396 496
3 399 397 493
3 496 398 494
3 387 399 505
3 494 400 506
3 493 501 505
3 504 502 506
3 501 493 499
3 502 500 494
3 313 381 505
3 388 382 506
3 321 313 503
3 322 504 314
3 389 319 503
3 390 504 320
